#!OML:ASF E:\Style4\Style4.ASF
:FULLY-SPECIFIED
:DEGREES
1940
root -0.421006 16.8387 -1.13601 0.563194 12.0359 4.38655
lowerback 13.5259 3.08293 -2.15411
upperback 8.79869 3.89595 -0.623353
thorax 1.59825 1.91349 0.0969663
lowerneck 3.40501 -2.96826 -3.59372
upperneck 2.54041 -4.09269 3.2993
head 0.363274 -2.06893 1.65148
rclavicle -3.85642e-014 -1.19271e-015
rhumerus 24.7097 -17.7203 -32.6995
rradius 94.7135
rwrist -11.6042
rhand 3.94373 10.6068
rfingers 7.12502
rthumb 29.362 -17.0941
lclavicle -3.85642e-014 -1.19271e-015
lhumerus 24.2743 10.8569 30.0343
lradius 101.584
lwrist 12.3689
lhand 7.93202 25.209
lfingers 7.12502
lthumb 33.1624 52.1748
rfemur -25.44 -13.1471 15.879
rtibia 55.372
rfoot -27.483 -19.8953
rtoes -10.6229
lfemur -26.8997 -1.92371 -21.8824
ltibia 49.7878
lfoot -21.662 3.03827
ltoes -13.3447
1941
root -0.419482 16.8369 -1.13583 0.543778 12.0118 4.35414
lowerback 13.5183 3.09203 -2.14701
upperback 8.79742 3.90876 -0.612945
thorax 1.6004 1.91983 0.102633
lowerneck 3.44723 -2.99609 -3.67599
upperneck 2.50686 -4.13394 3.36846
head 0.350693 -2.09055 1.68935
rclavicle -4.69132e-014 1.55052e-014
rhumerus 24.7168 -17.7248 -32.6661
rradius 94.721
rwrist -11.6383
rhand 3.92792 10.5326
rfingers 7.12502
rthumb 29.3469 -17.171
lclavicle -4.69132e-014 1.55052e-014
lhumerus 24.2638 10.839 30.0066
lradius 101.596
lwrist 12.366
lhand 7.87026 25.2166
lfingers 7.12502
lthumb 33.1037 52.1949
rfemur -25.4307 -13.1283 15.9076
rtibia 55.3841
rfoot -27.5496 -19.8351
rtoes -10.4208
lfemur -26.8847 -1.9219 -21.8508
ltibia 49.7958
lfoot -21.7519 2.93319
ltoes -12.9229
1942
root -0.417031 16.8368 -1.1366 0.554569 11.9885 4.42119
lowerback 13.5139 3.09914 -2.24853
upperback 8.79347 3.9073 -0.61915
thorax 1.59289 1.91516 0.152897
lowerneck 3.48912 -2.99685 -3.67605
upperneck 2.46929 -4.13535 3.34815
head 0.331581 -2.09158 1.68397
rclavicle -3.61788e-014 1.59028e-014
rhumerus 24.7235 -17.7076 -32.6537
rradius 94.7885
rwrist -11.6922
rhand 3.99468 10.378
rfingers 7.12502
rthumb 29.4106 -17.3144
lclavicle -3.61788e-014 1.59028e-014
lhumerus 24.155 10.8505 29.9839
lradius 101.678
lwrist 12.3875
lhand 7.8446 25.134
lfingers 7.12502
lthumb 33.0793 52.1175
rfemur -25.4461 -13.1419 15.8152
rtibia 55.3983
rfoot -27.5691 -19.7745
rtoes -10.4161
lfemur -26.8716 -1.92923 -21.9353
ltibia 49.7897
lfoot -21.7103 2.98201
ltoes -12.9772
1943
root -0.415411 16.8377 -1.13704 0.573382 11.9754 4.48585
lowerback 13.5115 3.10366 -2.3435
upperback 8.78264 3.90287 -0.622967
thorax 1.57733 1.90929 0.202012
lowerneck 3.55253 -3.00054 -3.67528
upperneck 2.41015 -4.14082 3.31435
head 0.301997 -2.09476 1.67475
rclavicle 3.598e-014 -1.03368e-014
rhumerus 24.7111 -17.6963 -32.6144
rradius 94.8375
rwrist -11.7667
rhand 4.06894 10.3531
rfingers 7.12502
rthumb 29.4815 -17.3268
lclavicle 3.598e-014 -1.03368e-014
lhumerus 24.1053 10.8485 30.0084
lradius 101.687
lwrist 12.4298
lhand 7.8826 25.1448
lfingers 7.12502
lthumb 33.1154 52.1206
rfemur -25.4587 -13.1607 15.736
rtibia 55.4015
rfoot -27.5283 -19.7823
rtoes -10.555
lfemur -26.8696 -1.91757 -22.0138
ltibia 49.7806
lfoot -21.6976 3.05824
ltoes -13.213
1944
root -0.414463 16.84 -1.13687 0.5574 11.9569 4.42088
lowerback 13.509 3.10276 -2.31601
upperback 8.77939 3.90442 -0.59952
thorax 1.57506 1.91047 0.210886
lowerneck 3.54034 -3.00761 -3.6574
upperneck 2.43261 -4.14917 3.27935
head 0.310149 -2.09865 1.65994
rclavicle 5.00937e-014 -2.42517e-014
rhumerus 24.6774 -17.6949 -32.5739
rradius 94.889
rwrist -11.7998
rhand 4.11675 10.4839
rfingers 7.12502
rthumb 29.5272 -17.1879
lclavicle 5.00937e-014 -2.42517e-014
lhumerus 24.0742 10.856 30.0066
lradius 101.684
lwrist 12.4526
lhand 7.95799 25.1885
lfingers 7.12502
lthumb 33.1871 52.1491
rfemur -25.4462 -13.1644 15.8081
rtibia 55.395
rfoot -27.5096 -19.7853
rtoes -10.4723
lfemur -26.8573 -1.90925 -21.9396
ltibia 49.7863
lfoot -21.7162 3.0784
ltoes -13.3342
1945
root -0.413761 16.839 -1.13746 0.519094 11.9349 4.32264
lowerback 13.5115 3.09359 -2.24913
upperback 8.79309 3.89958 -0.570219
thorax 1.5903 1.90974 0.205032
lowerneck 3.49641 -2.9861 -3.66488
upperneck 2.45873 -4.11991 3.27631
head 0.324631 -2.08381 1.65912
rclavicle -9.00495e-014 1.82882e-014
rhumerus 24.6521 -17.6847 -32.5676
rradius 94.9308
rwrist -11.8269
rhand 4.05058 10.7034
rfingers 7.12502
rthumb 29.464 -16.9796
lclavicle -9.00495e-014 1.82882e-014
lhumerus 24.0137 10.8759 29.9728
lradius 101.718
lwrist 12.4886
lhand 7.98008 25.3061
lfingers 7.12502
lthumb 33.2081 52.2622
rfemur -25.4203 -13.1535 15.9106
rtibia 55.3852
rfoot -27.5427 -19.746
rtoes -10.4011
lfemur -26.8536 -1.93804 -21.8293
ltibia 49.8199
lfoot -21.7401 3.1022
ltoes -13.2914
